<svg xmlns="http://www.w3.org/2000/svg" version="1.1" xmlns:xlink="http://www.w3.org/1999/xlink" xmlns:svgjs="http://svgjs.dev/svgjs" width="1500" height="1500" viewBox="0 0 1500 1500"><rect width="1500" height="1500" fill="#ffffff"></rect><g transform="matrix(0.6666666666666666,0,0,0.6666666666666666,248.44244080996884,189.33333333333348)"><svg viewBox="0 0 321 360" data-background-color="#ffffff" preserveAspectRatio="xMidYMid meet" height="1682" width="1500" xmlns="http://www.w3.org/2000/svg" xmlns:xlink="http://www.w3.org/1999/xlink"><g id="tight-bounds" transform="matrix(1,0,0,1,0.5000234999999975,0)"><svg viewBox="0 0 320 360" height="360" width="320"><g><svg></svg></g><g><svg viewBox="0 0 320 360" height="360" width="320"><g><path transform="translate(-74.99272,-51.79039) scale(4.65793,4.65793)" d="M20.6 59.9l0.8 1-0.4-1.3c-0.1-0.6-0.8 0.1-0.4 0.3M21.5 59.3c0.3 0.5 0.6 1 0.6 1.5 0 0.7 0.6 1 1.1 1.2-0.7-0.8-1.1-3-1.7-2.7M59.9 16.9c1.7 0 3.3-0.2 5.1 0.2 4.4 1.1 8.1 3.3 10.6 6.4l7 11.2c0.3 2.8 0.9 5.9 0.8 9.3 0.7 0 0.6-1 1.4-1.2-0.8 2-1.2 4.5-1.4 7.4-0.5-1.6 0-4 0.1-5.3-0.7 1.1-1.1 0.3-1.1-0.2 0.1-0.8-0.3-0.7-0.6-1-1.1-1-1.8-2.1-2.6-3.8 0.5-1.3 0.6-3.2-1-4.2-0.5-0.3-1.1-0.8-1.4-1.6-0.4-1.1-1.1-2.4-0.9-4.1 0.1-0.5-1.5 1.1-2.4 0.4-3.9-2.7-7.8-5.8-12.5-8.4-2.5 0-4.3-0.9-5.2-2-0.8-1-0.2-2.3 1-2.4 0.7 0 1.5-0.2 2.1 0.2 0.1-0.4 0.5-0.9 1-0.9M50 14.6l0.2 0.1c1 0.2 1.5 1.6 2.6 1.1 0 0.7 0.1 1.4-0.1 1.9-0.3 0.8-1.2 0.8-1.9 0.8-6.7-0.4-10.6 2.4-14.7 4.8-1.1 0.7-2.3 1.2-3.2 2.1-4.3 4-9 7.7-10.1 15.1l-0.9 8.2c-0.1 0.9-1.1 1.8-0.9 2.9l0.7 4.9c-0.7-0.7-1.1 0.2-0.9 0.6 0.1 0.3 0.5 1.3 1.1 0.4 0.8 1.5 1.6 4.4 2.7 5.7 3.4 4 7.8 7.6 11.4 11.2 0.9-0.2 1.6-0.2 1.8-0.8 0.3 0.6-0.3 1.2-0.8 1.3 1.6 1 3.4 1.9 5.8 2.1 3.1 0.2 6 0.7 8.7 1.4 1.4-0.4 2.8-0.6 4.3-0.7 0.5 0 0.8-0.8 1.4-1l0.1-1c0.6 0.9 0.5-0.3 0.1-0.9 0.7 0.6 0.9 1.1 1.2 1.5 0-0.3 0.8-1.4 0.8-0.1l0.2-1.3c0.3-0.2 0.4 1.1 0.7 0.2 0.3-0.9 0.9-0.2 1.5-0.5-0.2 0.4-0.1 1.2 0.6 0.7l0.8-0.7c0.5 1.2 1.3 0.7 1.7 0.5 4.4-2.8 8.8-6.1 13-9.4l-0.1 1.3 0.5-1.6c0.5 0.5 0.9 0.1 1.1-0.2 0.6-1 1.4-2 2.7-2.9-1.6 4.3-3.5 7.7-5.9 10.5l-1 1.2c0 0.7-0.2 1.6-1 1.7-0.4 0.1-1.2-0.2-1.8 0.4-0.3 0.4 0.7 1.2-0.1 0.6-0.7-0.5-1.4 0-2.2 0.2-0.6 0.2 0.4 0.8 0.6 1.2 0.2 0.4 0.4 0.8 0.3 1.3l-1.1-1.2c-1.3 0.7-2.1 2-3.2 3-0.5 0.4-0.3 1.1-0.3 1.7-0.7 0-1.5-0.2-1.9 0.2-0.3 0.4-0.2 1-0.2 1.6-1-0.1-1.1-1.6-2-1.3-0.9 0.2-1.9 0.3-2.7 0.8 0.6 1.2-1 0.5-0.8 0.7-1.5-0.9-2.8-1.6-4.4-1-3.4-1.1-7.6-0.6-10.7-0.2 0-0.5 0.1-1-0.1-1.1-0.2 0.5-0.8 0.3-0.7 0.3-1.9-1.3-3.8-2.1-5.8-3.2-1.8 0.2-3.5-0.7-4-1.2-1.4-1.3-3-0.6-4.3-0.9-2.8-0.7-3.8-3.6-4.1-5.6-0.2-1-1-1.4-1.3-1.3-1.3-4.2-3.3-8-4.9-11.9-0.4-1-0.3-2-0.3-3.1 0.5 0.2 1 0.1 0.9-0.6-0.5-3.3-1.7-5.8-3-8.2 0.7-3.4 0.8-7.4 2.4-10.4 1.4-2.7 4-4.1 5.8-6.4 0.6-0.8 0.6-1.9 1.2-2.6 2-2 4-4.1 6.2-5.9 1-0.8 2.2 0 3.7-0.3 0.5-1.8 2.5-3.4 4.4-2.9 0.8 0.2 2.4-1.9 2.9-2.1 0.8-0.3 0.4 0.8 0.4 1.5 1.9-1.5 4.5-2.3 6.9-3.2" fill="#636365" fill-rule="nonzero" stroke="none" stroke-width="1" stroke-linecap="butt" stroke-linejoin="miter" stroke-miterlimit="10" stroke-dasharray="" stroke-dashoffset="0" font-family="none" font-weight="none" font-size="none" text-anchor="none" style="mix-blend-mode: normal" data-fill-palette-color="tertiary"></path></g><g transform="matrix(1,0,0,1,83.78819936854438,90)"><svg viewBox="0 0 152.42360126291123 180" height="180" width="152.42360126291123"><g><svg viewBox="0 0 152.42360126291123 180" height="180" width="152.42360126291123"><g><svg viewBox="0 0 192 226.73654023164312" height="180" width="152.42360126291123"><g transform="matrix(1,0,0,1,0,134.9622418564585)"><svg viewBox="0 0 192 91.77429837518464" height="91.77429837518464" width="192"><g id="textblocktransform"><svg viewBox="0 0 192 91.77429837518464" height="91.77429837518464" width="192" id="textblock"><g><svg viewBox="0 0 192 91.77429837518464" height="91.77429837518464" width="192"><g transform="matrix(1,0,0,1,0,0)"><svg width="192" viewBox="4.08 -34.47 82.63 39.5" height="91.77429837518464" data-palette-color="#636365"><path d="M23.75-16.63L23.75-16.63 23.75-18.68Q23.75-21.22 23.01-23.69 22.27-26.17 21.09-27.59L21.09-27.59Q18.58-30.66 13.79-30.66L13.79-30.66 13.43-30.66Q9.91-30.66 9.4-29.47L9.4-29.47Q9.06-28.66 9.06-22.49L9.06-22.49 9.06-11.08 9.08-10.35Q9.08-9.99 9.08-9.62L9.08-9.62 9.13-8.18 9.2-6.74Q9.2-5.37 9.75-4.82 10.3-4.27 12.3-4.27L12.3-4.27 13.7-4.27Q18.6-4.27 21.09-7.5L21.09-7.5Q22.24-8.96 23-11.41 23.75-13.87 23.75-16.63ZM12.43-34.47L12.43-34.47 14.04-34.47Q21.66-34.47 25.5-30.21 29.35-25.95 29.35-17.99L29.35-17.99 29.35-17.41Q29.35-13.77 28.34-10.25L28.34-10.25Q26.54-3.91 20.78-1.42L20.78-1.42Q17.7-0.07 14.04-0.07L14.04-0.07 10.84-0.07Q6.86-0.07 5.15-0.95L5.15-0.95Q4.27-1.42 4.27-3.71L4.27-3.71 4.37-6.88 4.37-9.52 4.35-10.6 4.35-13.23 4.32-14.28 4.32-16.94 4.3-17.99Q4.3-18.53 4.3-19.07L4.3-19.07 4.17-25.29Q4.17-26.05 4.17-26.81L4.17-26.81 4.1-29.37 4.08-29.88 4.08-30.91 4.1-31.4Q4.1-33.37 5.44-33.79L5.44-33.79Q7.62-34.47 12.43-34.47ZM39.48 5.03L35.1 5.03Q33.13 5.03 33.13 3.61L33.13 3.61 33.13 3.08Q33.13 1.81 34.62 1.61L34.62 1.61Q35.86 1.44 45.85 1.44L45.85 1.44 51.93 1.39 55.49 1.39Q57.44 1.39 57.44 2.59L57.44 2.59 57.44 3.37Q57.44 4.64 56.24 4.81 55.03 4.98 44.7 4.98L44.7 4.98 43.6 4.98 43.06 5 40.57 5 39.48 5.03ZM67.18-2.49Q66.57-0.81 65.13-0.81 63.69-0.81 63.28-1.71L63.28-1.71Q63.03-2.22 63.03-3.91L63.03-3.91 63.03-5.57 63.18-9.91Q63.2-10.82 63.2-13.21L63.2-13.21 63.2-16.89 63.15-18.63 63.13-20.39Q63.13-21.24 63.11-22.09L63.11-22.09 63.03-24.63 63.03-27.88Q63.03-32.08 63.47-32.91 63.91-33.74 65.47-33.74 67.04-33.74 67.62-31.4L67.62-31.4Q68.01-29.76 68.16-25.24 68.31-20.73 69.26-20.73L69.26-20.73Q70.38-20.73 74.7-25.93 79.02-31.13 79.83-31.88L79.83-31.88Q81.73-33.67 83.37-33.67 85-33.67 85-32.86L85-32.86Q85-32.32 80.5-26.32 76-20.31 76-18.87L76-18.87Q76-18.46 81.35-9.91 86.71-1.37 86.71-1.2L86.71-1.2Q86.71-0.44 85.52-0.44L85.52-0.44 84.81-0.44Q83.22-0.44 81.77-1.89 80.32-3.34 78.01-7.07 75.7-10.79 74.63-12.11L74.63-12.11Q72.6-14.62 71.27-14.62 69.94-14.62 68.87-12.45L68.87-12.45Q68.16-11.01 67.89-7.34 67.62-3.66 67.18-2.49L67.18-2.49Z" opacity="1" transform="matrix(1,0,0,1,0,0)" fill="#636365" class="wordmark-text-0" data-fill-palette-color="primary" id="text-0"></path></svg></g></svg></g></svg></g></svg></g><g transform="matrix(1,0,0,1,36.672,0)"><svg viewBox="0 0 118.656 113.2965325932384" height="113.2965325932384" width="118.656"><g><svg xmlns="http://www.w3.org/2000/svg" xmlns:xlink="http://www.w3.org/1999/xlink" xml:space="preserve" version="1.1" style="shape-rendering:geometricPrecision;text-rendering:geometricPrecision;image-rendering:optimizeQuality;" viewBox="9.013457958102162 10.865239828489056 81.97115127945621 78.26866920036227" x="0" y="0" fill-rule="evenodd" clip-rule="evenodd" height="113.2965325932384" width="118.656" class="icon-icon-0" data-fill-palette-color="accent" id="icon-0"><g fill="#636365" data-fill-palette-color="accent"><path class="" d="M17.87 39.75C9.85 19.85 29.58 20.07 44.22 15.52 46.97 14.66 67.36 2.97 58.74 20.28 58.42 20.92 58.07 21.52 57.69 22.06 71 18.92 79.48 13.14 72.54 28.37 83.76 38.39 97.95 47.4 87.11 66.27 71.86 92.84 39.23 96.62 16.92 75.68 5.43 64.88 6.25 47.16 20.78 42.24 20.96 42.2 21.13 42.17 21.3 42.17A2.4 2.4 0 0 1 23.7 43.96C24.02 45.24 23.25 46.55 21.98 46.87 20.14 47.49 18.82 48.07 17.49 49.58 2.78 66.27 30.8 81.77 45.65 83.86 69.7 87.23 98.72 60.27 78.89 39.53 63.58 23.51 66.33 35.97 69.75 23.89 67.01 24.91 65.36 25.46 60.97 26.43 39.68 31.15 50.89 24.29 54.48 16.7L45.39 20.15C32.3 24.27 16.27 23.12 22.13 37.58 22.7 38.7 22.31 40.06 21.25 40.71L21.09 40.8C19.91 41.4 18.47 40.93 17.87 39.75M60.32 34.71C63.63 35.74 62.01 35.39 65.16 35.82A2.38 2.38 0 0 1 67.34 38.4 2.39 2.39 0 0 1 64.76 40.59C60.7 40.03 62.86 40.48 58.32 39.06A2.407 2.407 0 0 1 57.14 35.88C57.7 34.68 59.12 34.16 60.32 34.71M27.39 41.84C29.32 38.27 31.79 37.16 35.62 36.01A2.4 2.4 0 0 1 38.32 38.06 2.39 2.39 0 0 1 36.27 40.75C34.64 41.26 32.8 42.05 31.84 43.58A2.385 2.385 0 0 1 28.75 44.94 2.396 2.396 0 0 1 27.39 41.84M32.53 60.27C37.67 59.31 49.78 56.88 54.03 57.68L53.8 57.71C55.11 57.6 56.27 58.58 56.38 59.9 56.49 61.21 55.51 62.37 54.19 62.48 48.14 61.91 40.81 63.56 34.66 64.72 45.33 81.08 75.7 66.48 69.49 49.08 69.42 48.91 69.37 48.74 69.33 48.57A2.395 2.395 0 0 1 73.88 47.17C83.6 74.48 30.6 93.57 26.5 54.26 26.45 54.07 26.43 53.88 26.43 53.68V53.59L26.44 53.56V53.47L26.45 53.44V53.38L26.46 53.36V53.32L26.47 53.3V53.26L26.48 53.24 26.49 53.2V53.19L26.5 53.14V53.13L26.51 53.08 26.53 53.03V53.02L26.55 52.97 26.58 52.86H26.59L26.61 52.81 26.63 52.75 26.65 52.7 26.68 52.65 26.7 52.6V52.59L26.73 52.55V52.54L26.76 52.5V52.49L26.79 52.45V52.44L26.82 52.4 26.85 52.35 26.89 52.3 26.92 52.25 26.96 52.21 26.99 52.16H27L27.07 52.08 27.11 52.04V52.03L27.15 52V51.99L27.19 51.96 27.2 51.95 27.23 51.92 27.24 51.91 27.28 51.88 27.29 51.87 27.32 51.84 27.33 51.83 27.37 51.81 27.38 51.8 27.41 51.77 27.43 51.76C27.59 51.65 27.76 51.56 27.94 51.48 41.42 44.93 48.58 46.95 63.17 45.16 64.3 45.02 64.07 45.03 64.93 45.05A2.39 2.39 0 1 1 64.93 49.83L64.33 49.82 64.45 49.76C54.72 51.19 49.81 50.56 44.66 51.07 43.08 51.23 41.48 51.5 39.72 51.96 37.35 52.58 34.69 53.56 31.37 55.13 31.62 57.02 32.01 58.73 32.53 60.27" fill="#636365" data-fill-palette-color="accent"></path></g></svg></g></svg></g><g></g></svg></g></svg></g></svg></g></svg></g><defs></defs></svg><rect width="320" height="360" fill="none" stroke="none" visibility="hidden"></rect></g></svg></g></svg>